<?xml version="1.0" encoding="UTF-8" standalone="no"?><svg xmlns="http://www.w3.org/2000/svg" xmlns:xlink="http://www.w3.org/1999/xlink" contentScriptType="application/ecmascript" contentStyleType="text/css" height="553px" preserveAspectRatio="none" style="width:531px;height:553px;" version="1.1" viewBox="0 0 531 553" width="531px" zoomAndPan="magnify"><defs><filter height="300%" id="f1svgukiin73w6" width="300%" x="-1" y="-1"><feGaussianBlur result="blurOut" stdDeviation="2.0"/><feColorMatrix in="blurOut" result="blurOut2" type="matrix" values="0 0 0 0 0 0 0 0 0 0 0 0 0 0 0 0 0 0 .4 0"/><feOffset dx="4.0" dy="4.0" in="blurOut2" result="blurOut3"/><feBlend in="SourceGraphic" in2="blurOut3" mode="normal"/></filter></defs><g><rect fill="#FFFFFF" filter="url(#f1svgukiin73w6)" height="279.7949" style="stroke: #000000; stroke-width: 2.0;" width="506" x="13" y="183.4199"/><rect fill="#FFFFFF" height="203.8633" style="stroke: none; stroke-width: 1.0;" width="506" x="13" y="259.3516"/><line style="stroke: #A80036; stroke-width: 1.0; stroke-dasharray: 5.0,5.0;" x1="52" x2="52" y1="65.4883" y2="480.2148"/><line style="stroke: #A80036; stroke-width: 1.0; stroke-dasharray: 5.0,5.0;" x1="185.5" x2="185.5" y1="65.4883" y2="480.2148"/><line style="stroke: #A80036; stroke-width: 1.0; stroke-dasharray: 5.0,5.0;" x1="400" x2="400" y1="65.4883" y2="480.2148"/><line style="stroke: #A80036; stroke-width: 1.0; stroke-dasharray: 5.0,5.0;" x1="471" x2="471" y1="65.4883" y2="480.2148"/><rect fill="#FEFECE" filter="url(#f1svgukiin73w6)" height="30.4883" style="stroke: #A80036; stroke-width: 1.5;" width="54" x="23" y="30"/><text fill="#000000" font-family="sans-serif" font-size="14" lengthAdjust="spacingAndGlyphs" textLength="40" x="30" y="50.5352">Client</text><rect fill="#FEFECE" filter="url(#f1svgukiin73w6)" height="30.4883" style="stroke: #A80036; stroke-width: 1.5;" width="54" x="23" y="479.2148"/><text fill="#000000" font-family="sans-serif" font-size="14" lengthAdjust="spacingAndGlyphs" textLength="40" x="30" y="499.75">Client</text><rect fill="#FEFECE" filter="url(#f1svgukiin73w6)" height="30.4883" style="stroke: #A80036; stroke-width: 1.5;" width="53" x="157.5" y="30"/><text fill="#000000" font-family="sans-serif" font-size="14" lengthAdjust="spacingAndGlyphs" textLength="39" x="164.5" y="50.5352">Proxy</text><rect fill="#FEFECE" filter="url(#f1svgukiin73w6)" height="30.4883" style="stroke: #A80036; stroke-width: 1.5;" width="53" x="157.5" y="479.2148"/><text fill="#000000" font-family="sans-serif" font-size="14" lengthAdjust="spacingAndGlyphs" textLength="39" x="164.5" y="499.75">Proxy</text><text fill="#000000" font-family="sans-serif" font-size="14" lengthAdjust="spacingAndGlyphs" textLength="42" x="376" y="62.5352">Cache</text><path d="M382,13 C382,3 400,3 400,3 C400,3 418,3 418,13 L418,39 C418,49 400,49 400,49 C400,49 382,49 382,39 L382,13 " fill="#FEFECE" filter="url(#f1svgukiin73w6)" style="stroke: #000000; stroke-width: 1.5;"/><path d="M382,13 C382,23 400,23 400,23 C400,23 418,23 418,13 " fill="none" style="stroke: #000000; stroke-width: 1.5;"/><text fill="#000000" font-family="sans-serif" font-size="14" lengthAdjust="spacingAndGlyphs" textLength="42" x="376" y="492.75">Cache</text><path d="M382,505.7031 C382,495.7031 400,495.7031 400,495.7031 C400,495.7031 418,495.7031 418,505.7031 L418,531.7031 C418,541.7031 400,541.7031 400,541.7031 C400,541.7031 382,541.7031 382,531.7031 L382,505.7031 " fill="#FEFECE" filter="url(#f1svgukiin73w6)" style="stroke: #000000; stroke-width: 1.5;"/><path d="M382,505.7031 C382,515.7031 400,515.7031 400,515.7031 C400,515.7031 418,515.7031 418,505.7031 " fill="none" style="stroke: #000000; stroke-width: 1.5;"/><rect fill="#FEFECE" filter="url(#f1svgukiin73w6)" height="30.4883" style="stroke: #A80036; stroke-width: 1.5;" width="71" x="434" y="30"/><text fill="#000000" font-family="sans-serif" font-size="14" lengthAdjust="spacingAndGlyphs" textLength="57" x="441" y="50.5352">Backend</text><rect fill="#FEFECE" filter="url(#f1svgukiin73w6)" height="30.4883" style="stroke: #A80036; stroke-width: 1.5;" width="71" x="434" y="479.2148"/><text fill="#000000" font-family="sans-serif" font-size="14" lengthAdjust="spacingAndGlyphs" textLength="57" x="441" y="499.75">Backend</text><line style="stroke: #A80036; stroke-width: 1.0;" x1="184" x2="174" y1="96.4883" y2="92.4883"/><line style="stroke: #A80036; stroke-width: 1.0;" x1="184" x2="174" y1="96.4883" y2="100.4883"/><line style="stroke: #A80036; stroke-width: 1.0;" x1="52" x2="185" y1="96.4883" y2="96.4883"/><text fill="#000000" font-family="sans-serif" font-size="13" lengthAdjust="spacingAndGlyphs" textLength="50" x="59" y="92.0566">Request</text><line style="stroke: #A80036; stroke-width: 1.0;" x1="186" x2="228" y1="126.1094" y2="126.1094"/><line style="stroke: #A80036; stroke-width: 1.0;" x1="228" x2="228" y1="126.1094" y2="139.1094"/><line style="stroke: #A80036; stroke-width: 1.0;" x1="187" x2="228" y1="139.1094" y2="139.1094"/><polygon fill="#A80036" points="197,135.1094,187,139.1094,197,143.1094,193,139.1094" style="stroke: #A80036; stroke-width: 1.0;"/><text fill="#000000" font-family="sans-serif" font-size="13" lengthAdjust="spacingAndGlyphs" textLength="124" x="193" y="121.3672">Extract Request Key</text><line style="stroke: #A80036; stroke-width: 1.0;" x1="398" x2="388" y1="168.1094" y2="164.1094"/><line style="stroke: #A80036; stroke-width: 1.0;" x1="398" x2="388" y1="168.1094" y2="172.1094"/><line style="stroke: #A80036; stroke-width: 1.0;" x1="186" x2="399" y1="168.1094" y2="168.1094"/><text fill="#000000" font-family="sans-serif" font-size="13" lengthAdjust="spacingAndGlyphs" textLength="190" x="193" y="163.6777">Retrieve Response from Cache</text><path d="M13,183.4199 L75,183.4199 L75,190.4199 L65,200.4199 L13,200.4199 L13,183.4199 " fill="#EEEEEE" style="stroke: #000000; stroke-width: 1.0;"/><rect fill="none" height="279.7949" style="stroke: #000000; stroke-width: 2.0;" width="506" x="13" y="183.4199"/><text fill="#000000" font-family="sans-serif" font-size="13" font-weight="bold" lengthAdjust="spacingAndGlyphs" textLength="17" x="28" y="196.9883">alt</text><text fill="#000000" font-family="sans-serif" font-size="11" font-weight="bold" lengthAdjust="spacingAndGlyphs" textLength="113" x="90" y="196.0547">[Response in Cache]</text><polygon fill="#A80036" points="197,217.7305,187,221.7305,197,225.7305,193,221.7305" style="stroke: #A80036; stroke-width: 1.0;"/><line style="stroke: #A80036; stroke-width: 1.0; stroke-dasharray: 2.0,2.0;" x1="191" x2="399" y1="221.7305" y2="221.7305"/><text fill="#000000" font-family="sans-serif" font-size="13" lengthAdjust="spacingAndGlyphs" textLength="110" x="203" y="217.2988">Cached Response</text><polygon fill="#A80036" points="63,247.041,53,251.041,63,255.041,59,251.041" style="stroke: #A80036; stroke-width: 1.0;"/><line style="stroke: #A80036; stroke-width: 1.0; stroke-dasharray: 2.0,2.0;" x1="57" x2="185" y1="251.041" y2="251.041"/><text fill="#000000" font-family="sans-serif" font-size="13" lengthAdjust="spacingAndGlyphs" textLength="110" x="69" y="246.6094">Cached Response</text><line style="stroke: #000000; stroke-width: 1.0; stroke-dasharray: 2.0,2.0;" x1="13" x2="519" y1="260.3516" y2="260.3516"/><line style="stroke: #A80036; stroke-width: 1.0;" x1="186" x2="228" y1="282.6621" y2="282.6621"/><line style="stroke: #A80036; stroke-width: 1.0;" x1="228" x2="228" y1="282.6621" y2="295.6621"/><line style="stroke: #A80036; stroke-width: 1.0;" x1="187" x2="228" y1="295.6621" y2="295.6621"/><polygon fill="#A80036" points="197,291.6621,187,295.6621,197,299.6621,193,295.6621" style="stroke: #A80036; stroke-width: 1.0;"/><text fill="#000000" font-family="sans-serif" font-size="13" lengthAdjust="spacingAndGlyphs" textLength="31" x="193" y="277.9199">Build</text><text fill="#000000" font-family="sans-serif" font-size="13" font-weight="bold" lengthAdjust="spacingAndGlyphs" textLength="57" x="228" y="277.9199">Backend</text><text fill="#000000" font-family="sans-serif" font-size="13" lengthAdjust="spacingAndGlyphs" textLength="50" x="289" y="277.9199">Request</text><line style="stroke: #A80036; stroke-width: 1.0;" x1="469.5" x2="459.5" y1="324.6621" y2="320.6621"/><line style="stroke: #A80036; stroke-width: 1.0;" x1="469.5" x2="459.5" y1="324.6621" y2="328.6621"/><line style="stroke: #A80036; stroke-width: 1.0;" x1="186" x2="470.5" y1="324.6621" y2="324.6621"/><text fill="#000000" font-family="sans-serif" font-size="13" font-weight="bold" lengthAdjust="spacingAndGlyphs" textLength="57" x="193" y="320.2305">Backend</text><text fill="#000000" font-family="sans-serif" font-size="13" lengthAdjust="spacingAndGlyphs" textLength="50" x="254" y="320.2305">Request</text><polygon fill="#A80036" points="197,349.9727,187,353.9727,197,357.9727,193,353.9727" style="stroke: #A80036; stroke-width: 1.0;"/><line style="stroke: #A80036; stroke-width: 1.0; stroke-dasharray: 2.0,2.0;" x1="191" x2="470.5" y1="353.9727" y2="353.9727"/><text fill="#000000" font-family="sans-serif" font-size="13" font-weight="bold" lengthAdjust="spacingAndGlyphs" textLength="57" x="203" y="349.541">Backend</text><text fill="#000000" font-family="sans-serif" font-size="13" lengthAdjust="spacingAndGlyphs" textLength="60" x="264" y="349.541">Response</text><line style="stroke: #A80036; stroke-width: 1.0;" x1="186" x2="228" y1="383.5938" y2="383.5938"/><line style="stroke: #A80036; stroke-width: 1.0;" x1="228" x2="228" y1="383.5938" y2="396.5938"/><line style="stroke: #A80036; stroke-width: 1.0;" x1="187" x2="228" y1="396.5938" y2="396.5938"/><polygon fill="#A80036" points="197,392.5938,187,396.5938,197,400.5938,193,396.5938" style="stroke: #A80036; stroke-width: 1.0;"/><text fill="#000000" font-family="sans-serif" font-size="13" lengthAdjust="spacingAndGlyphs" textLength="48" x="193" y="378.8516">Process</text><text fill="#000000" font-family="sans-serif" font-size="13" font-weight="bold" lengthAdjust="spacingAndGlyphs" textLength="57" x="245" y="378.8516">Backend</text><text fill="#000000" font-family="sans-serif" font-size="13" lengthAdjust="spacingAndGlyphs" textLength="60" x="306" y="378.8516">Response</text><line style="stroke: #A80036; stroke-width: 1.0;" x1="398" x2="388" y1="425.5938" y2="421.5938"/><line style="stroke: #A80036; stroke-width: 1.0;" x1="398" x2="388" y1="425.5938" y2="429.5938"/><line style="stroke: #A80036; stroke-width: 1.0;" x1="186" x2="399" y1="425.5938" y2="425.5938"/><text fill="#000000" font-family="sans-serif" font-size="13" lengthAdjust="spacingAndGlyphs" textLength="154" x="193" y="421.1621">Store Response in Cache</text><polygon fill="#A80036" points="63,450.9043,53,454.9043,63,458.9043,59,454.9043" style="stroke: #A80036; stroke-width: 1.0;"/><line style="stroke: #A80036; stroke-width: 1.0; stroke-dasharray: 2.0,2.0;" x1="57" x2="185" y1="454.9043" y2="454.9043"/><text fill="#000000" font-family="sans-serif" font-size="13" lengthAdjust="spacingAndGlyphs" textLength="60" x="69" y="450.4727">Response</text><!--
@startuml

Client ->> Proxy : Request
Proxy -> Proxy : Extract Request Key
database Cache
Proxy ->> Cache : Retrieve Response from Cache

alt Response in Cache

    Proxy <- - Cache : Cached Response
    Client <- - Proxy : Cached Response

else

    Proxy -> Proxy: Build **Backend** Request
    Proxy ->> Backend : **Backend** Request
    Proxy <- - Backend : **Backend** Response
    Proxy -> Proxy: Process **Backend** Response
    Proxy ->> Cache : Store Response in Cache
    Client <- - Proxy : Response

end

@enduml

PlantUML version 1.2018.01(Sun Jan 28 13:08:22 EST 2018)
(APACHE source distribution)
Java Runtime: Java(TM) SE Runtime Environment
JVM: Java HotSpot(TM) 64-Bit Server VM
Java Version: 1.8.0_144-b01
Operating System: Mac OS X
OS Version: 10.13.3
Default Encoding: UTF-8
Language: en
Country: US
--></g></svg>